PathFileType	4	(X/Y/Z)	E:/New_biomech_experiments/Elbow Flexion/Shreyas_25_06_24_elbow_flexion/Session 2024-06-26/Shreyas_ElbFlex_pp_staticPose.trc	
DataRate	CameraRate	NumFrames	NumMarkers	Units	OrigDataRate	OrigDataStartFrame	OrigNumFrames	
120.00	120.00	23	19	m	120.00	681	778	
Frame#	Time	MarkerSet_LFHD			MarkerSet_LBHD			MarkerSet_C7			MarkerSet_RBHD			MarkerSet_PRSHO			MarkerSet_RSHO			MarkerSet_STRN			MarkerSet_RFHD			MarkerSet_CLAV			MarkerSet_RWRA			MarkerSet_RWRB			MarkerSet_ARSHO			MarkerSet_RFRM			MarkerSet_RELB			MarkerSet_RUPA			MarkerSet_MRHAND			MarkerSet_T10			MarkerSet_RHAND			MarkerSet_MRELB			
		X1	Y1	Z1	X2	Y2	Z2	X3	Y3	Z3	X4	Y4	Z4	X5	Y5	Z5	X6	Y6	Z6	X7	Y7	Z7	X8	Y8	Z8	X9	Y9	Z9	X10	Y10	Z10	X11	Y11	Z11	X12	Y12	Z12	X13	Y13	Z13	X14	Y14	Z14	X15	Y15	Z15	X16	Y16	Z16	X17	Y17	Z17	X18	Y18	Z18	X19	Y19	Z19	

681	5.667	0.05592	1.83917	-0.03549	-0.04803	1.73676	-0.05726	-0.07470	1.54401	0.00393	-0.06436	1.75411	0.07946	-0.09981	1.44644	0.13302	0.01903	1.49987	0.21409	0.16187	1.34434	-0.00013	0.03759	1.82170	0.09114	0.12209	1.46764	0.00741	0.26893	1.19152	0.15718	0.28855	1.16699	0.25215	0.10250	1.45727	0.11892	0.16196	1.18419	0.26414	0.02806	1.18726	0.28344	0.02073	1.30614	0.26091	0.38132	1.15155	0.25707	-0.09495	1.33330	-0.00689	0.40728	1.19133	0.14242	0.01799	1.13582	0.17479 
682	5.675	0.05582	1.83918	-0.03551	-0.04814	1.73674	-0.05730	-0.07478	1.54402	0.00388	-0.06445	1.75411	0.07944	-0.09990	1.44643	0.13296	0.01895	1.49986	0.21403	0.16180	1.34436	-0.00018	0.03748	1.82168	0.09111	0.12201	1.46765	0.00737	0.26886	1.19152	0.15711	0.28848	1.16699	0.25208	0.10243	1.45727	0.11887	0.16190	1.18443	0.26432	0.02800	1.18725	0.28338	0.02065	1.30613	0.26085	0.38125	1.15156	0.25699	-0.09504	1.33331	-0.00696	0.40721	1.19134	0.14235	0.01793	1.13581	0.17473 
683	5.683	0.05572	1.83919	-0.03553	-0.04824	1.73673	-0.05734	-0.07487	1.54404	0.00382	-0.06454	1.75410	0.07941	-0.09998	1.44642	0.13290	0.01887	1.49985	0.21398	0.16173	1.34439	-0.00023	0.03738	1.82167	0.09108	0.12193	1.46766	0.00733	0.26879	1.19152	0.15704	0.28841	1.16698	0.25201	0.10236	1.45726	0.11882	0.16184	1.18464	0.26450	0.02794	1.18724	0.28333	0.02058	1.30612	0.26079	0.38117	1.15155	0.25691	-0.09513	1.33332	-0.00703	0.40714	1.19135	0.14228	0.01786	1.13580	0.17467 
684	5.692	0.05562	1.83920	-0.03555	-0.04834	1.73672	-0.05737	-0.07495	1.54405	0.00376	-0.06463	1.75409	0.07938	-0.10007	1.44642	0.13284	0.01879	1.49985	0.21392	0.16166	1.34441	-0.00028	0.03727	1.82166	0.09105	0.12185	1.46768	0.00729	0.26871	1.19151	0.15696	0.28834	1.16696	0.25193	0.10228	1.45726	0.11877	0.16176	1.18482	0.26466	0.02787	1.18724	0.28327	0.02049	1.30610	0.26072	0.38110	1.15154	0.25681	-0.09522	1.33333	-0.00711	0.40707	1.19135	0.14220	0.01779	1.13579	0.17461 
685	5.700	0.05553	1.83921	-0.03557	-0.04843	1.73671	-0.05740	-0.07503	1.54406	0.00371	-0.06473	1.75409	0.07934	-0.10016	1.44642	0.13277	0.01871	1.49984	0.21386	0.16158	1.34443	-0.00034	0.03717	1.82166	0.09102	0.12177	1.46770	0.00726	0.26863	1.19150	0.15688	0.28828	1.16694	0.25185	0.10221	1.45725	0.11873	0.16169	1.18494	0.26477	0.02781	1.18723	0.28322	0.02041	1.30609	0.26066	0.38102	1.15152	0.25671	-0.09531	1.33334	-0.00718	0.40699	1.19135	0.14211	0.01772	1.13577	0.17456 
686	5.708	0.05544	1.83921	-0.03559	-0.04852	1.73671	-0.05743	-0.07511	1.54406	0.00366	-0.06483	1.75408	0.07930	-0.10025	1.44642	0.13270	0.01862	1.49984	0.21380	0.16151	1.34445	-0.00041	0.03706	1.82165	0.09099	0.12170	1.46773	0.00723	0.26855	1.19147	0.15678	0.28821	1.16692	0.25177	0.10213	1.45725	0.11868	0.16161	1.18503	0.26482	0.02774	1.18723	0.28316	0.02034	1.30609	0.26060	0.38095	1.15151	0.25660	-0.09541	1.33336	-0.00726	0.40692	1.19134	0.14202	0.01765	1.13576	0.17451 
687	5.717	0.05535	1.83922	-0.03561	-0.04861	1.73671	-0.05746	-0.07520	1.54406	0.00361	-0.06493	1.75407	0.07926	-0.10034	1.44643	0.13263	0.01853	1.49984	0.21374	0.16143	1.34446	-0.00048	0.03696	1.82166	0.09096	0.12162	1.46776	0.00720	0.26847	1.19144	0.15668	0.28814	1.16691	0.25168	0.10205	1.45725	0.11863	0.16154	1.18508	0.26483	0.02768	1.18722	0.28311	0.02027	1.30608	0.26054	0.38087	1.15150	0.25650	-0.09551	1.33337	-0.00734	0.40684	1.19133	0.14191	0.01758	1.13575	0.17445 
688	5.725	0.05527	1.83923	-0.03563	-0.04870	1.73671	-0.05750	-0.07528	1.54407	0.00356	-0.06503	1.75407	0.07923	-0.10043	1.44644	0.13255	0.01845	1.49983	0.21368	0.16135	1.34447	-0.00055	0.03685	1.82167	0.09092	0.12154	1.46780	0.00718	0.26838	1.19140	0.15658	0.28807	1.16690	0.25158	0.10197	1.45724	0.11858	0.16147	1.18512	0.26481	0.02762	1.18722	0.28305	0.02019	1.30608	0.26048	0.38079	1.15149	0.25639	-0.09560	1.33338	-0.00743	0.40676	1.19131	0.14180	0.01750	1.13575	0.17440 
689	5.733	0.05519	1.83923	-0.03565	-0.04879	1.73672	-0.05753	-0.07537	1.54409	0.00350	-0.06513	1.75407	0.07918	-0.10052	1.44646	0.13248	0.01836	1.49982	0.21362	0.16127	1.34449	-0.00063	0.03675	1.82168	0.09088	0.12146	1.46783	0.00715	0.26829	1.19136	0.15647	0.28800	1.16689	0.25149	0.10188	1.45724	0.11852	0.16140	1.18513	0.26476	0.02755	1.18721	0.28299	0.02012	1.30608	0.26042	0.38070	1.15149	0.25628	-0.09571	1.33340	-0.00751	0.40668	1.19129	0.14167	0.01742	1.13574	0.17435 
690	5.742	0.05511	1.83924	-0.03568	-0.04887	1.73672	-0.05757	-0.07546	1.54410	0.00344	-0.06523	1.75407	0.07914	-0.10061	1.44646	0.13241	0.01827	1.49980	0.21357	0.16119	1.34450	-0.00070	0.03664	1.82170	0.09083	0.12138	1.46786	0.00712	0.26820	1.19132	0.15636	0.28792	1.16688	0.25139	0.10180	1.45724	0.11847	0.16133	1.18512	0.26468	0.02749	1.18721	0.28293	0.02005	1.30609	0.26036	0.38061	1.15149	0.25616	-0.09581	1.33342	-0.00760	0.40660	1.19127	0.14154	0.01733	1.13573	0.17429 
691	5.750	0.05503	1.83925	-0.03570	-0.04895	1.73673	-0.05760	-0.07555	1.54412	0.00337	-0.06532	1.75407	0.07909	-0.10070	1.44647	0.13234	0.01819	1.49979	0.21351	0.16111	1.34452	-0.00077	0.03654	1.82172	0.09079	0.12130	1.46789	0.00708	0.26810	1.19127	0.15624	0.28785	1.16687	0.25129	0.10171	1.45723	0.11841	0.16126	1.18510	0.26458	0.02742	1.18721	0.28287	0.01998	1.30609	0.26030	0.38052	1.15149	0.25604	-0.09592	1.33344	-0.00769	0.40650	1.19124	0.14140	0.01723	1.13573	0.17424 
692	5.758	0.05496	1.83925	-0.03573	-0.04903	1.73674	-0.05764	-0.07564	1.54413	0.00330	-0.06542	1.75407	0.07904	-0.10080	1.44648	0.13226	0.01810	1.49978	0.21345	0.16102	1.34454	-0.00084	0.03645	1.82173	0.09075	0.12122	1.46791	0.00703	0.26801	1.19124	0.15613	0.28777	1.16686	0.25118	0.10162	1.45723	0.11835	0.16119	1.18505	0.26445	0.02735	1.18720	0.28281	0.01990	1.30609	0.26023	0.38043	1.15148	0.25592	-0.09602	1.33346	-0.00778	0.40641	1.19121	0.14126	0.01714	1.13573	0.17418 
693	5.767	0.05488	1.83926	-0.03576	-0.04910	1.73675	-0.05768	-0.07574	1.54415	0.00323	-0.06552	1.75407	0.07898	-0.10089	1.44649	0.13219	0.01801	1.49978	0.21339	0.16093	1.34456	-0.00091	0.03637	1.82174	0.09071	0.12114	1.46793	0.00698	0.26791	1.19121	0.15602	0.28769	1.16684	0.25108	0.10152	1.45722	0.11828	0.16112	1.18498	0.26428	0.02727	1.18720	0.28275	0.01982	1.30608	0.26016	0.38034	1.15146	0.25579	-0.09613	1.33348	-0.00787	0.40630	1.19118	0.14111	0.01704	1.13572	0.17411 
694	5.775	0.05481	1.83927	-0.03580	-0.04918	1.73676	-0.05773	-0.07583	1.54418	0.00316	-0.06561	1.75408	0.07893	-0.10098	1.44649	0.13212	0.01791	1.49977	0.21333	0.16084	1.34459	-0.00098	0.03629	1.82175	0.09067	0.12105	1.46795	0.00692	0.26782	1.19118	0.15592	0.28760	1.16682	0.25097	0.10142	1.45721	0.11821	0.16105	1.18488	0.26408	0.02720	1.18720	0.28268	0.01972	1.30607	0.26009	0.38025	1.15144	0.25566	-0.09623	1.33350	-0.00796	0.40619	1.19115	0.14095	0.01694	1.13572	0.17405 
695	5.783	0.05473	1.83927	-0.03584	-0.04926	1.73677	-0.05778	-0.07592	1.54420	0.00308	-0.06570	1.75409	0.07887	-0.10108	1.44648	0.13205	0.01782	1.49977	0.21326	0.16076	1.34461	-0.00106	0.03621	1.82176	0.09063	0.12097	1.46797	0.00686	0.26772	1.19116	0.15582	0.28752	1.16679	0.25085	0.10132	1.45719	0.11813	0.16098	1.18473	0.26382	0.02712	1.18719	0.28260	0.01962	1.30606	0.26001	0.38015	1.15140	0.25553	-0.09633	1.33352	-0.00806	0.40608	1.19110	0.14078	0.01683	1.13572	0.17398 
696	5.792	0.05466	1.83928	-0.03588	-0.04934	1.73678	-0.05783	-0.07602	1.54423	0.00299	-0.06579	1.75410	0.07881	-0.10117	1.44648	0.13199	0.01772	1.49977	0.21320	0.16067	1.34464	-0.00113	0.03613	1.82178	0.09059	0.12089	1.46801	0.00682	0.26762	1.19114	0.15572	0.28743	1.16676	0.25073	0.10122	1.45717	0.11805	0.16092	1.18459	0.26355	0.02704	1.18719	0.28253	0.01951	1.30605	0.25993	0.38006	1.15136	0.25540	-0.09643	1.33354	-0.00816	0.40596	1.19105	0.14060	0.01673	1.13572	0.17390 
697	5.800	0.05460	1.83929	-0.03592	-0.04942	1.73679	-0.05789	-0.07612	1.54426	0.00290	-0.06588	1.75411	0.07873	-0.10127	1.44646	0.13192	0.01763	1.49976	0.21314	0.16059	1.34467	-0.00120	0.03605	1.82178	0.09054	0.12081	1.46804	0.00678	0.26752	1.19112	0.15562	0.28733	1.16673	0.25062	0.10111	1.45714	0.11796	0.16086	1.18450	0.26333	0.02695	1.18718	0.28244	0.01940	1.30604	0.25984	0.37996	1.15133	0.25528	-0.09654	1.33356	-0.00826	0.40584	1.19098	0.14041	0.01662	1.13572	0.17381 
698	5.808	0.05453	1.83929	-0.03596	-0.04950	1.73680	-0.05795	-0.07622	1.54430	0.00280	-0.06598	1.75412	0.07866	-0.10136	1.44644	0.13185	0.01753	1.49975	0.21307	0.16051	1.34471	-0.00127	0.03598	1.82179	0.09049	0.12073	1.46807	0.00672	0.26742	1.19110	0.15552	0.28724	1.16670	0.25050	0.10100	1.45712	0.11787	0.16079	1.18445	0.26316	0.02686	1.18717	0.28235	0.01928	1.30602	0.25975	0.37986	1.15130	0.25515	-0.09665	1.33359	-0.00836	0.40573	1.19092	0.14024	0.01651	1.13573	0.17372 
699	5.817	0.05447	1.83930	-0.03601	-0.04957	1.73681	-0.05801	-0.07632	1.54435	0.00269	-0.06608	1.75414	0.07857	-0.10146	1.44644	0.13177	0.01743	1.49973	0.21301	0.16043	1.34475	-0.00133	0.03592	1.82180	0.09044	0.12064	1.46808	0.00665	0.26731	1.19108	0.15541	0.28714	1.16669	0.25039	0.10089	1.45709	0.11777	0.16071	1.18440	0.26300	0.02677	1.18716	0.28226	0.01917	1.30601	0.25966	0.37976	1.15127	0.25504	-0.09676	1.33361	-0.00847	0.40562	1.19087	0.14010	0.01640	1.13573	0.17362 
700	5.825	0.05441	1.83931	-0.03607	-0.04964	1.73682	-0.05808	-0.07643	1.54439	0.00257	-0.06618	1.75416	0.07849	-0.10155	1.44643	0.13169	0.01733	1.49973	0.21294	0.16036	1.34480	-0.00139	0.03585	1.82181	0.09039	0.12056	1.46809	0.00657	0.26720	1.19106	0.15529	0.28705	1.16667	0.25027	0.10078	1.45707	0.11768	0.16062	1.18434	0.26284	0.02667	1.18715	0.28215	0.01906	1.30600	0.25956	0.37966	1.15126	0.25492	-0.09686	1.33364	-0.00857	0.40552	1.19084	0.13997	0.01628	1.13574	0.17351 
701	5.833	0.05434	1.83931	-0.03613	-0.04972	1.73682	-0.05816	-0.07653	1.54444	0.00246	-0.06627	1.75418	0.07840	-0.10165	1.44643	0.13160	0.01723	1.49972	0.21287	0.16028	1.34486	-0.00144	0.03579	1.82182	0.09033	0.12047	1.46812	0.00651	0.26709	1.19105	0.15518	0.28695	1.16666	0.25016	0.10068	1.45706	0.11760	0.16053	1.18427	0.26267	0.02656	1.18715	0.28205	0.01895	1.30599	0.25947	0.37957	1.15125	0.25482	-0.09696	1.33366	-0.00868	0.40541	1.19081	0.13986	0.01617	1.13574	0.17339 
702	5.842	0.05427	1.83932	-0.03620	-0.04979	1.73683	-0.05824	-0.07662	1.54448	0.00236	-0.06635	1.75420	0.07832	-0.10175	1.44643	0.13151	0.01712	1.49972	0.21280	0.16022	1.34493	-0.00147	0.03573	1.82183	0.09027	0.12040	1.46816	0.00646	0.26699	1.19104	0.15507	0.28685	1.16665	0.25005	0.10057	1.45706	0.11753	0.16042	1.18418	0.26249	0.02646	1.18714	0.28193	0.01884	1.30599	0.25938	0.37947	1.15125	0.25472	-0.09706	1.33369	-0.00879	0.40531	1.19080	0.13977	0.01605	1.13575	0.17327 
703	5.850	0.05420	1.83933	-0.03628	-0.04987	1.73683	-0.05834	-0.07672	1.54452	0.00224	-0.06643	1.75423	0.07825	-0.10184	1.44644	0.13142	0.01702	1.49972	0.21273	0.16015	1.34501	-0.00149	0.03567	1.82184	0.09020	0.12032	1.46820	0.00640	0.26688	1.19103	0.15497	0.28675	1.16664	0.24994	0.10047	1.45706	0.11746	0.16031	1.18406	0.26229	0.02635	1.18713	0.28181	0.01873	1.30598	0.25928	0.37936	1.15124	0.25462	-0.09716	1.33371	-0.00890	0.40521	1.19081	0.13969	0.01594	1.13576	0.17314 
